<svg width="32" height="32" viewBox="0 0 32 32" fill="none" xmlns="http://www.w3.org/2000/svg">
<circle cx="16" cy="16" r="16" fill="#00697C" fill-opacity="0.1"/>
<path d="M19.7272 13.0858V15.5858H22.2272M19.7272 15.5793L23.0573 12.2492M18.8907 11.4158V8.91584H16.3907M18.8907 8.92235L15.5606 12.2524M23.8842 20.3449C23.8939 20.3709 23.8972 20.4002 23.8972 20.4328C23.8939 20.7062 23.8516 20.9764 23.7702 21.2401C23.4577 22.2524 22.6146 23.3429 21.6185 23.6359C19.1055 24.3846 16.459 23.6164 14.1185 22.4412C12.1849 21.4744 10.6127 19.9087 9.63285 17.9783C8.45121 15.6541 7.67972 13.0207 8.43168 10.5207C8.7279 9.53107 9.8249 8.69123 10.8438 8.38199L11.6608 8.16714C11.7976 8.13133 11.9343 8.2062 11.9799 8.33641L12.6244 10.2244C12.9532 11.1424 13.2819 12.0571 13.6107 12.9751L13.6335 13.0467C13.6791 13.1737 13.64 13.3169 13.5293 13.4015C13.2103 13.6424 12.8522 13.8312 12.4714 13.9549C12.0189 14.0981 11.5469 14.1893 11.0716 14.2283C10.9805 14.2381 10.8991 14.2869 10.8503 14.3651C10.7982 14.4399 10.7852 14.5343 10.8145 14.6222C11.3093 16.1847 12.1719 17.604 13.3308 18.7628C14.4994 19.9184 15.9284 20.7778 17.4974 21.2694C17.5853 21.2954 17.6797 21.2824 17.7546 21.2335C17.8295 21.1847 17.8815 21.1033 17.8881 21.0122C17.9304 20.5402 18.0248 20.0714 18.168 19.6222C18.295 19.2414 18.4838 18.8865 18.7246 18.5708C18.8093 18.4601 18.9525 18.4178 19.0827 18.4666L19.1543 18.4894L21.918 19.4725C22.5756 19.7036 23.1355 19.938 23.793 20.1723C23.8256 20.1854 23.8646 20.283 23.8842 20.3449Z" stroke="#00697C" stroke-linecap="round"/>
</svg>
